<?xml version="1.0" standalone="no"?>
<!DOCTYPE svg PUBLIC "-//W3C//DTD SVG 20010904//EN"
 "http://www.w3.org/TR/2001/REC-SVG-20010904/DTD/svg10.dtd">
<svg version="1.0" xmlns="http://www.w3.org/2000/svg"
 width="1500.000000pt" height="1500.000000pt" viewBox="0 0 1500.000000 1500.000000"
 preserveAspectRatio="xMidYMid meet">
<metadata>
Created by potrace 1.11, written by Peter Selinger 2001-2013
</metadata>
<g transform="translate(0.000000,1500.000000) scale(0.100000,-0.100000)"
fill="#000000" stroke="none">
<path d="M1365 14993 c-91 -7 -245 -37 -320 -60 -237 -75 -439 -204 -631 -406
-243 -254 -370 -527 -404 -869 -8 -83 -10 -1752 -8 -6233 l3 -6120 23 -108
c69 -326 221 -585 482 -822 197 -178 411 -287 683 -347 l102 -23 6195 0 c5931
0 6199 1 6288 18 319 62 570 202 808 449 236 245 367 526 404 860 14 137 14
12200 -1 12336 -36 332 -162 605 -392 848 -239 253 -489 394 -817 461 -80 16
-432 17 -6230 18 -3380 1 -6163 0 -6185 -2z m6755 -4013 c766 -52 1477 -231
2115 -534 479 -227 817 -456 1090 -737 123 -127 175 -191 264 -329 l61 -94 0
852 0 852 1010 0 1010 0 0 -3275 0 -3275 -1010 0 -1010 0 0 58 c0 256 -34 687
-76 962 -127 835 -440 1478 -921 1891 -302 260 -647 409 -944 409 l-79 0 0
-1660 0 -1660 -1010 0 -1010 0 0 2270 0 2270 -1662 0 c-1036 0 -1699 -4 -1758
-10 -286 -30 -529 -148 -740 -360 -254 -253 -370 -535 -370 -896 0 -211 39
-383 127 -559 147 -294 440 -548 743 -643 172 -54 206 -57 695 -57 l450 0 3
758 2 757 1005 0 1005 0 0 -1765 0 -1766 -1542 4 c-1648 4 -1570 2 -1875 58
-377 69 -784 228 -1088 426 -459 299 -868 725 -1127 1173 -302 523 -444 1154
-408 1806 27 494 129 877 345 1299 149 290 319 526 548 762 321 330 558 510
907 687 416 212 813 315 1300 336 260 12 3763 3 3950 -10z"/>
</g>
</svg>
