<?xml version="1.0" standalone="no"?>
<!DOCTYPE svg PUBLIC "-//W3C//DTD SVG 20010904//EN"
 "http://www.w3.org/TR/2001/REC-SVG-20010904/DTD/svg10.dtd">
<svg version="1.0" xmlns="http://www.w3.org/2000/svg"
 width="16.000000pt" height="16.000000pt" viewBox="0 0 16.000000 16.000000"
 preserveAspectRatio="xMidYMid meet">
<metadata>
Created by potrace 1.11, written by Peter Selinger 2001-2013
</metadata>
<g transform="translate(0.000000,16.000000) scale(0.000741,-0.000741)"
fill="#000000" stroke="none">
<path d="M1735 21593 c-341 -44 -723 -209 -985 -423 -423 -346 -682 -823 -740
-1362 -14 -136 -14 -17870 0 -18006 42 -392 194 -761 437 -1062 72 -89 243
-257 328 -321 297 -227 658 -371 1024 -408 145 -15 17857 -15 18002 0 366 37
726 180 1024 408 85 64 256 232 328 321 242 300 398 677 436 1059 15 139 15
17874 1 18011 -38 368 -182 728 -409 1025 -68 90 -235 258 -331 335 -241 192
-515 323 -834 398 l-111 26 -9070 2 c-4989 0 -9083 -1 -9100 -3z m10695 -6018
c533 -32 945 -91 1405 -201 1026 -245 2050 -762 2900 -1462 l110 -91 3 885 2
884 1565 0 1565 0 0 -4625 0 -4625 -1558 0 -1559 0 -6 253 c-21 824 -153 1544
-410 2247 -265 722 -630 1349 -1092 1875 -442 503 -1069 991 -1697 1320 l-138
73 0 -2884 0 -2884 -1570 0 -1570 0 0 3190 0 3190 -2718 0 -2718 0 -66 -132
c-512 -1018 -516 -2181 -11 -3221 l77 -157 1098 0 1098 0 0 285 0 285 -905 0
-905 0 0 1180 0 1180 2310 0 2310 0 0 -2900 0 -2900 -3499 0 -3498 0 -110 128
c-376 436 -683 894 -938 1397 -430 847 -650 1639 -720 2595 -17 229 -19 730
-4 956 53 814 232 1548 554 2274 294 663 645 1220 1119 1773 l109 127 4611 0
c3961 0 4646 -2 4856 -15z"/>
</g>
</svg>
